<?xml version="1.0" encoding="UTF-8"?>
<!DOCTYPE svg PUBLIC "-//W3C//DTD SVG 1.1//EN" "http://www.w3.org/Graphics/SVG/1.1/DTD/svg11.dtd">
<!-- Creator: CorelDRAW -->
<svg xmlns="http://www.w3.org/2000/svg" xml:space="preserve" width="210mm" height="297mm" version="1.1" style="shape-rendering:geometricPrecision; text-rendering:geometricPrecision; image-rendering:optimizeQuality; fill-rule:evenodd; clip-rule:evenodd"
viewBox="0 0 21000 29700"
 xmlns:xlink="http://www.w3.org/1999/xlink"
 xmlns:xodm="http://www.corel.com/coreldraw/odm/2003">
 <defs>
  <style type="text/css">
   <![CDATA[
    .fil0 {fill:#3598D3}
   ]]>
  </style>
 </defs>
 <g id="!;>9_x0020_1">
  <metadata id="CorelCorpID_0Corel-Layer"/>
  <path class="fil0" d="M5024.89 4079.19l912.66 430.95c-357.22,650.59 -548.2,1267.12 -487.01,2160.43 26.29,383.81 82.47,767.24 185.74,1112.27 99.21,331.5 294.41,700.71 364.23,959.99 -323.11,204.59 -449.18,179.37 -616.6,523.21 -220,451.83 -158.99,2025.21 1196.11,2090.46 264.1,866.91 334.76,1252.6 856.03,1955.35 87.29,117.64 177.99,202.1 245.59,309.43 131.32,208.54 61.96,790.04 73.27,1087.63l877.14 664.93c1885.41,1165.53 2416.75,898.98 4269.01,-515.75 306.06,-233.75 188.38,-274.83 197.7,-972.67 5.36,-403.66 257.5,-403.43 714.66,-1299.69 255.52,-501 302.53,-991.14 412.7,-1191.17 394.12,-67.48 551.62,-121.78 777.4,-356.76 660.29,-687.15 713.93,-2038.15 -187.88,-2290.95 135.27,-470.38 334.03,-818.7 429.02,-1353.95 98.07,-552.65 121.17,-1071.85 -3.67,-1625.61 -221.61,-983.09 -817.56,-1674.3 -1920.75,-1677.79 -169.83,-541.04 -909.82,-1051.84 -1526.43,-1279.42 -1710.75,-631.44 -3151.8,-15.18 -4667.46,535.17l-2101.46 733.94zm-429.26 15850.76c-688.45,240.26 -1099.93,343.31 -1494.55,1192.59 -177.11,381.16 -175.5,762.48 -183.09,1205.92 -6.4,374.16 -230.53,896.3 159.03,1069.2 19.08,671.78 212.1,1634.11 422.85,2287.19 73.66,228.16 207.09,444.09 250,659.99 -342.81,3.45 102.55,-263.34 -627.29,-257.4 -321.35,2.61 -587.37,-32.88 -620.67,315.26 -36.9,386.22 64.23,488.35 433.9,491.49 802.38,6.82 528.93,-148.11 704.62,-217.27 484.94,-15.98 329.9,89.66 654.24,288.62 463.93,284.64 1060.8,248.43 1502.36,-76.14 316.29,-232.49 10.85,-217.39 733.14,-221.64 106.83,245.32 159.25,263.41 664.92,220.6 337.68,-28.58 492.1,-38.28 478.39,-415.54 -13.42,-368.52 -197.7,-374.76 -516.13,-372 -376.34,3.29 -498.62,-75.8 -641.06,240.45l-279.19 3.26c15.25,-111.17 238.96,-604.65 297.66,-793.37 175.05,-562.65 293.65,-1366.56 332.77,-1964.2 25.53,-390.21 83.12,-121.9 187.04,-362.12 42,-97.1 42.81,-450.72 24.22,-562.69 -37.09,-223.63 -90.66,-37.36 -87.79,-444.7 1.34,-190.91 0,-362.62 -27.09,-552.53 -82.58,-577.98 -383.51,-1104.15 -868.63,-1423.82 -291.16,-191.86 -473.29,-207.23 -819.05,-318.47 -6.33,-997.54 145.88,-1860.08 656.99,-2706.53l232.91 -307.32c71.08,770.8 439.68,1866.71 683.82,2578.08 590.43,1720.33 1732.97,3898.38 2829.99,5312.42 108.71,140.14 631.28,886.8 770.88,877.87 236.97,-110.36 1138.25,-1468.64 1372.15,-1830.99 1038.24,-1608.52 2047.28,-3692.35 2559.35,-5582.74 123.58,-456.35 190.6,-874.04 300.08,-1327.7 1370.77,1505.77 1110.93,4670.07 522.91,6813.64 -672.47,115.5 -1155.53,364.27 -1443.66,926.42 -503.64,982.56 134.62,2198.6 1287.16,2371.5 1853.8,278.08 2642.8,-1944.73 1362.96,-2909.59 -164.58,-124.04 -313.3,-228.23 -519.58,-286.13 149.37,-981.79 338.06,-1163.51 445.78,-2560.26 139.9,-1813.91 -66.53,-3365.48 -1097.98,-4827.23 -314.07,-445.12 -999.11,-1212.78 -1636.91,-1385.87 90.71,785.83 321.08,1248.12 108.68,2035.43 -330.7,1225.47 -727.12,2335.29 -1277.7,3458.63 -148.64,303.27 -674.16,1383.04 -835.6,1526.74 -127.61,-540.58 -332.77,-2762.01 -481.41,-3031.63l-1364.15 -9.39 -432.59 3068.11c-431.83,-460.6 -1327.28,-2509.52 -1585.22,-3189.58 -224.36,-591.62 -418.1,-1150.75 -567.97,-1799.23 -221.22,-957.12 2.99,-1182.28 104.73,-2080.08 -805.22,214.55 -1544.06,1095.95 -1945.5,1812.83 -527.13,941.37 -729.3,1810.65 -730.72,3059.92zm1810.57 -13307.55c-46.4,865.64 280.5,871.97 714.93,1195.12 -111.43,378.25 -332.3,730.91 -323.53,1185.15 7.89,409.3 116.3,911.4 190.76,1313.76 166.11,897.37 288.16,1681.2 721.98,2351.92 453.51,701.13 822.69,1125.72 1508.19,1563.17 772.26,492.76 1438.1,606.76 2277.96,72.16 672.13,-427.8 399.48,-228.27 852.23,-664.54 295.64,-284.91 464.13,-443.59 704.67,-848.86 492.1,-829.09 512.87,-1333.42 713.2,-2358.93 368.52,-1886.48 223.83,-1679.56 -597.17,-3593.48 -126.65,-295.21 -316.68,-827.28 -468.62,-1078.32l-564.41 523.49c-530.73,476.35 -1466.99,1051.15 -2223.47,1221.33 -1283.98,288.89 -2473.96,-20 -3435.63,-825.37l-71.09 -56.6zm-2824.51 15771.13l210.91 66.44c9.66,254.83 52.57,695.55 -79.28,829.28l-90.63 73.69c16.67,621.97 165.89,1422.4 324.11,1989.61 154.54,554.06 432.86,1288.04 1026.28,1309.08 1116.75,39.66 1355.75,-2595.29 1357.06,-3298.69 -186.31,-116.22 -172.94,3.57 -169.18,-330.77 2.1,-185.74 1.53,-371.86 5.09,-557.52l188.54 -65.53c169.87,-1950.74 -1762.87,-2338.54 -2478.53,-1327.51 -265.98,375.77 -297.94,784.79 -294.37,1311.92zm1017.08 -4986.33c-564.64,66.03 -1592.22,605.45 -2098.12,854.3 -336.83,165.7 -653.58,366.8 -921.94,559.32 -1194.96,857.41 -1300.15,1732.86 -1301.65,3135.63 -0.46,446.24 -72.34,2712.58 93.77,2899.01 128.22,143.89 421.56,134.58 525.25,-17.28 114.58,-167.84 62.16,-1912.12 61.81,-2178.48 -1.15,-924.16 -123.04,-1884.49 336.03,-2606.06 561.65,-882.81 1651.74,-1379.51 2666.83,-1773.36 586.37,-227.5 47.97,-87.18 638.02,-873.08zm15475.11 4919.38l4.21 2223.13c3.61,256.2 82.55,422.7 363.7,402.78 344,-24.38 277.7,-406.31 277.47,-775.25 -0.3,-912.63 -29.66,-1830.39 -34.64,-2738.3 -4.9,-896.07 -294.53,-1629.78 -736.58,-2095.71 -457.12,-481.83 -1062.11,-855.75 -1674.16,-1139.51 -455.73,-211.26 -1527.54,-769.89 -2017.11,-800.89 740.45,1077.75 -226.97,503.22 1134.65,1056.25 530.96,215.7 1021.18,462.79 1435.92,746.93 421.63,288.85 777.51,626.68 1021.03,1162.47 274.41,603.69 224.25,1251.03 225.51,1958.1zm-10828.07 -4589.6c84.12,152.36 438.19,654.27 575.76,778.97 181.9,22.53 1116.26,44.45 1247.27,-5.18 64.8,-24.52 571.04,-638.86 600.55,-708.87 -697.27,-771 -384.69,-898.95 -1181.52,-901.21 -525.25,-1.49 -495.43,-93 -780.34,240.96l-461.72 595.33zm6534.87 6773.99c-198.8,343.07 32.04,1145.03 -481.68,1136.94 -292.84,-4.59 -343.96,-166.61 -314.37,-444.85 28.24,-265.71 73.3,-518.93 104.15,-781.61 -1165.27,273.72 -1058.43,1817.32 71.16,1996.04 1303.1,206.16 1635.57,-1526.09 620.74,-1906.52zm-1475.2 -13696.38c402.55,-17.21 556.87,-314.23 648.07,-673.55 110.25,-434.62 85.95,-847.41 -357.29,-920.17l-290.78 1593.72zm-7823.98 1.3l-295.75 -1553.26c-440.99,75.26 -463.06,442.41 -364.65,889.06 78.97,358.64 271.76,652.82 660.4,664.2z"/>
 </g>
</svg>
