<?xml version="1.0" encoding="UTF-8"?>
<!DOCTYPE svg PUBLIC "-//W3C//DTD SVG 1.1//EN" "http://www.w3.org/Graphics/SVG/1.1/DTD/svg11.dtd">
<!-- Creator: CorelDRAW -->
<svg xmlns="http://www.w3.org/2000/svg" xml:space="preserve" width="210mm" height="297mm" version="1.1" style="shape-rendering:geometricPrecision; text-rendering:geometricPrecision; image-rendering:optimizeQuality; fill-rule:evenodd; clip-rule:evenodd"
viewBox="0 0 21000 29700"
 xmlns:xlink="http://www.w3.org/1999/xlink"
 xmlns:xodm="http://www.corel.com/coreldraw/odm/2003">
 <defs>
  <style type="text/css">
   <![CDATA[
    .fil0 {fill:#3598D3}
   ]]>
  </style>
 </defs>
 <g id="!;>9_x0020_1">
  <metadata id="CorelCorpID_0Corel-Layer"/>
  <path class="fil0" d="M5665.26 16119.27c-373.23,-317.56 -759.39,-915.29 -806.24,-1622.34 217.49,228.07 165.91,525.55 972.47,1211.52 265.46,225.75 1049.14,702.13 1572.4,614.2l-1.36 -551.24c15.91,58.71 108.57,173.81 148.08,268.27 95.22,227.63 69.29,1161.99 49.33,1410.33 -392.3,167.4 -205.7,44.73 -743.52,327.34 -1486.64,781.23 -4339.42,1535.13 -5345.51,2513.66 -942.9,917.09 -1186.76,1568.51 -1185.72,3313.72 0.36,594.6 -56.9,4202.84 31.74,4455.72 167.28,235.08 745.61,130.77 1061.2,131.65 400,1.12 800.03,-0.36 1199.98,0.44 799.87,1.6 1600.14,4.53 2399.97,1.12l14438.37 -1.8c1394.91,-1.89 1206.47,214.4 1206.59,-1180.75 0.12,-973.55 63.96,-3988.11 -69.45,-4737.81 -372.42,-2092.62 -2215.25,-2702.01 -3860.31,-3378.8 -850.57,-349.98 -1732.07,-661.61 -2533.62,-1065.09 -307.46,-154.77 -506.47,-236.77 -860.1,-379.4 -57.51,-416.94 -88.45,-1402.04 152.81,-1637.6l-4.05 531.64c671.31,-62.68 1150.13,-309.58 1568.16,-623.29 514.16,-385.81 765.88,-1009.95 950.11,-1221.63 -37.92,695.15 -435.26,1329.75 -796.38,1625.95 628.74,-226.47 1206.83,-914.65 1504.11,-1534.21 1193.37,-2487.17 -1.28,-6317.07 -1279.45,-8446.96 -206.55,-344.17 -382.32,-638.57 -612.11,-936.97 -251.76,-326.93 -193.81,-276.52 58.02,-1155.7 68.25,-238.21 337.32,-1033.66 228.07,-1219.09 -146.75,-249.23 -1671.43,-810.45 -2112.3,-948.11 -2083.72,-650.79 -4534.02,-477.42 -6559.68,338.56 -179.38,72.25 -945.78,435.58 -1035.71,514.09 -338,295.03 542.7,2007.54 441.83,2340.57 -20.8,68.73 -248.67,377.91 -308.74,463.71 -1141.71,1631.27 -1996.12,4535.63 -1971.03,6528.54 19.87,1579.86 590.43,3424.38 2102.04,4049.76zm-4767.15 11524.71l19200.47 5.13c91.65,-316.19 20.36,-3094.35 20.2,-3657.29 -0.2,-818.1 55.66,-1717.23 -348.58,-2444.44 -562.54,-1011.95 -1454.82,-1421.52 -2683.7,-1919.38 -505.55,-204.83 -2292.8,-955.36 -2671.07,-1059.2 -450.57,1747.62 -1642.34,3548.33 -2713.56,4945.04l-858.29 1038.28c-314.24,333.71 -366.41,478.58 -873.97,-130.65l-719.84 -907.15c-183.9,-252.03 -364.16,-483.47 -544.54,-732.62 -702.69,-970.75 -1362.25,-2158.19 -1835.7,-3274.53 -121.59,-286.7 -217.45,-655.72 -350.7,-923.58 -388.7,85.24 -912.96,356.15 -1298.69,502.71 -948.35,360.36 -2384.09,871.72 -3152.7,1452.29 -157.66,119.11 -342.57,327.54 -471.41,456.63 -719.56,720.99 -709.86,1755.02 -714.07,2957.89 -2.2,619.33 1.77,1238.77 -0.4,1858.02 -1.36,383.8 -51.17,1537.86 16.55,1832.85zm10796.43 -20841.59c-1684.57,306.05 -3492.7,1427.77 -4782.49,2477.51 -317.52,258.44 -302.41,188.31 -277.69,777.38 82.32,1959.21 779.95,4666.32 2816.31,5514.03 2169.77,903.27 4001.74,-1348.46 4483.49,-3370.47 285.14,-1196.97 431.17,-2424.57 64.64,-3616.57 -356.23,-1158.63 -974.96,-2023.42 -2304.26,-1781.88zm-5906.93 -3768.94l792.77 2830.49c242.46,-39.72 562.38,-149.28 807.64,-207.79 287.99,-68.73 584.83,-128.6 865.11,-176.49 1288.63,-220.1 2635.89,-208.08 3929.33,0.04 576.97,92.81 1223.42,321.36 1722.29,385.84l766.76 -2805.77c-670.58,-311.42 -1206.67,-580.81 -1989.15,-781.19 -1943.58,-497.82 -4079.93,-440.43 -5946.73,322.93 -172.44,70.53 -316.03,127.24 -485.43,210.76 -141.27,69.65 -316,173.77 -462.59,221.18zm2421.16 12645.87c-2,229.15 33.86,2291.23 -61.8,2382.01 -343.16,149.36 -503.99,-272.04 -1079.19,279 34.06,447.04 662.21,1744.33 860.98,2115.03l5024.59 2.48c157.5,-0.16 229.59,-274.84 298.32,-424.56 198.38,-432.05 582.74,-1266.87 624.14,-1700.68 -761.76,-828.48 -1154.66,440.91 -1152.45,-805.16l-20 -1877.86c-306.62,135.14 -894.2,799.95 -2226.23,833.45 -439.75,11.06 -922.1,-94.02 -1296.05,-252.83 -487.32,-207 -913.44,-530.44 -972.31,-550.88zm2257.21 8448.44c396.83,-291.15 2028.31,-2587.28 2262.75,-3126.13l-4487.66 2.64c179.58,395.95 773.42,1245.35 1041,1627.31 150.17,214.32 971.79,1342.57 1183.91,1496.18zm-559.65 -20995.37l-727.09 11.46 -4.65 660.29 732.14 4.73 -2.24 744.84 695.11 8.58 12.86 -747.05 736.51 -2.09 -10.74 -675.71 -726.69 -8.17 -7.62 -747.33 -693.54 14.14 -4.05 736.31zm-3581.75 9313.15c-36.63,-444.96 -188.03,-993.39 -257.37,-1468.93 -51.01,-350.3 -24.48,-1443.8 -584.58,-804.19 -391.09,446.56 -283.45,2382.97 841.95,2273.12zm8253.51 6.13c659.13,22.81 874.25,-477.54 976.68,-1073.9 97.15,-565.55 18.92,-1419.96 -609.82,-1378.24 -17.72,47.77 -363.93,2337.85 -366.86,2452.14z"/>
 </g>
</svg>
