<?xml version="1.0" encoding="UTF-8"?>
<!DOCTYPE svg PUBLIC "-//W3C//DTD SVG 1.1//EN" "http://www.w3.org/Graphics/SVG/1.1/DTD/svg11.dtd">
<!-- Creator: CorelDRAW 2020 (64-Bit) -->
<svg xmlns="http://www.w3.org/2000/svg" xml:space="preserve" width="120mm" height="30mm" version="1.1" style="shape-rendering:geometricPrecision; text-rendering:geometricPrecision; image-rendering:optimizeQuality; fill-rule:evenodd; clip-rule:evenodd"
viewBox="0 0 12000 3000"
 xmlns:xlink="http://www.w3.org/1999/xlink"
 xmlns:xodm="http://www.corel.com/coreldraw/odm/2003">
 <defs>
  <style type="text/css">
   <![CDATA[
    .fil2 {fill:#FEFEFE}
    .fil0 {fill:#00AF66}
    .fil1 {fill:#222222}
   ]]>
  </style>
 </defs>
 <g id="!;>9_x0020_1">
  <metadata id="CorelCorpID_0Corel-Layer"/>
  <g id="_2365692119152">
   <path class="fil0" d="M5429.43 2637.94l-86.25 -222.78c-4.78,-12.18 -9.85,-24.74 -14.75,-37.22 -2.3,-5.87 -4.2,-11.06 -6.68,-17.57 -0.64,-1.68 -3.33,-8.47 -4.09,-9.86l-5.91 -8.37c-91.73,61.88 -111.51,75.76 -215.34,124.94 -269.14,127.47 -566.14,168.71 -859.9,94.58 -774.65,-195.48 -1058.49,-1057.58 -601.05,-1697.82 58.89,-82.43 95.04,-112.1 161.21,-178.4 40.45,-40.54 149.74,-116.12 199.09,-144.12 114.35,-64.89 238.72,-111.32 373.05,-139.93 175.47,-37.38 164.19,6.54 123.58,-92.64l-58.21 -142.84c-7.73,-18.97 -21.43,-57.23 -30.28,-72.43 -209.24,8.92 -481.55,123.06 -624,214.49 -44.48,28.55 -81.77,54.82 -122.62,85.46 -110.47,82.84 -230.8,212.91 -305.72,328.79 -54.83,84.81 -103.28,168.91 -144.47,274.98 -179.04,461.03 -107.54,933.79 158.94,1328.87 31.68,46.97 98.3,127.2 141.66,170.38 165.97,165.24 360.78,289.36 591.35,358.56 353.79,106.19 718.73,83.38 1058.19,-67.1 70.8,-31.38 142.99,-66.83 207.31,-108.2 20.19,-12.99 46.65,-32.3 64.89,-41.77z"/>
   <path class="fil1" d="M5927.12 1500.15l0 31.2c0,278.31 219.87,500.14 500.95,500.14 119.28,0 208.38,-25.88 301.06,-95.04 10.94,-8.16 22.6,-19.38 31.55,-24.15l0.2 95.73 227.18 0 -0.11 -990.68 -227.08 -0.49 0.01 96.33c-21.39,-12.99 -37.62,-28.29 -60.22,-41.63 -99.2,-58.56 -162.42,-71.54 -279.53,-71.54 -269.87,0 -494.01,224.95 -494.01,500.13z"/>
   <path class="fil0" d="M3812.77 2039.59l319.2 0.52c32.68,-71.79 60.76,-154.86 90.32,-228.87 30.8,-77.15 60.75,-153.76 91.23,-231.12 30.1,-76.41 60.78,-153.6 91.08,-231.34 4.97,-12.75 83.13,-217.71 92.45,-229.85 10.11,15.67 77.36,196.1 89.94,228.9 29.63,77.27 59.75,156.23 90.15,232.26l134.59 347.25c8.33,21.52 37.35,110.5 49.34,112.79l312.23 0c-3.4,-18.92 -20.77,-54.93 -28.74,-74.64l-454.89 -1108.61c-5.31,-13.03 -2.85,-11.58 -12.34,-16.29l-367.5 0.02 -497.06 1198.98z"/>
   <path class="fil1" d="M8226.43 1021.43l-154.89 1.18 -1.18 198.45 154.85 0.05 1.23 786.92 238.27 0 0.1 -784.31c21.43,-7.2 261.71,-2.64 305.09,-2.64l1.73 -198.54 -306.82 0c0.01,-105.25 15.48,-172.94 99.67,-204.51 84.52,-31.68 174.86,-8.3 245.69,25.58 6.67,-7.34 73.86,-172.34 75.66,-185.89 -124.66,-74.05 -326.77,-96.75 -465.96,-26.07 -64.18,32.6 -116.64,80.57 -147.79,143.74 -41.94,85.03 -45.65,141.08 -45.65,246.04z"/>
   <polygon class="fil1" points="7212.38,2002.03 7225.42,2003 7450.77,2002.84 7450.77,623.05 7212.38,623.12 "/>
   <path class="fil2" d="M6417.06 1200.28c-166.66,21.04 -288.67,158.32 -266.96,348.92 19.16,168.18 156.4,292.16 348.5,270.84 169.47,-18.81 286.41,-156.73 266.15,-347.98 -17.96,-169.53 -157.24,-295.83 -347.69,-271.78z"/>
   <polygon class="fil1" points="7693.45,2002.84 7918.79,2002.84 7931.86,2002.22 7931.85,1018.47 7918.81,1017.13 7693.45,1017.35 "/>
   <path class="fil1" d="M7664.8 747.85c0,204.63 301.72,208.62 301.72,-3.46 0,-190.38 -301.72,-193.45 -301.72,3.46z"/>
  </g>
 </g>
</svg>
