<?xml version="1.0" encoding="UTF-8"?>
<!DOCTYPE svg PUBLIC "-//W3C//DTD SVG 1.1//EN" "http://www.w3.org/Graphics/SVG/1.1/DTD/svg11.dtd">
<!-- Creator: CorelDRAW 2020 (64-Bit) -->
<svg xmlns="http://www.w3.org/2000/svg" xml:space="preserve" width="120mm" height="30mm" version="1.1" style="shape-rendering:geometricPrecision; text-rendering:geometricPrecision; image-rendering:optimizeQuality; fill-rule:evenodd; clip-rule:evenodd"
viewBox="0 0 12000 3000"
 xmlns:xlink="http://www.w3.org/1999/xlink"
 xmlns:xodm="http://www.corel.com/coreldraw/odm/2003">
 <defs>
  <style type="text/css">
   <![CDATA[
    .fil0 {fill:#8A2943}
    .fil1 {fill:#FCFEFE}
   ]]>
  </style>
 </defs>
 <g id="!;>9_x0020_1">
  <metadata id="CorelCorpID_0Corel-Layer"/>
  <g id="_2328816284704">
   <path class="fil0" d="M1940.15 2324.73c3.79,-23.72 0.95,-945.81 0.95,-1019.79 0,-65.8 3.17,-132.99 -7.62,-196.23 -20.38,-119.39 -78.95,-207.07 -140.22,-270.87 -66.78,-69.53 -165.39,-121.56 -267.46,-140.91 -72.31,-13.71 -312.2,-8.22 -401.21,-8.22 -89.16,0 -329.44,-5.32 -402.02,7.62 -117.94,21.04 -209.1,79.43 -270.27,140.54 -61.57,61.53 -118.05,150.22 -140.21,268.43 -13.25,70.67 -7.95,313.51 -7.95,401.21 0,89.65 -5.36,328.42 7.86,401.65 38.2,211.52 205.2,373.39 409.86,409.25 72.96,12.78 310.82,7.66 400.08,7.66 204.22,0 408.45,0 612.67,0 65.62,0 141.15,3.46 205.54,-0.34z"/>
   <path class="fil0" d="M5271.8 973.41c-157.83,17.5 -295.7,73 -397.27,185.32 -25.98,28.73 -40.44,47.15 -61.52,81.67 -18.08,29.62 -34.44,64.04 -46.69,99.11 -27.03,77.42 -36.71,170.38 -26.27,259.74 16.95,145.21 94.81,283.7 214.69,365.8 196.3,134.43 459.37,154.95 689.45,50.78 65.16,-29.5 132.36,-81.39 168.79,-122.93 107.68,-122.79 154.9,-264.72 135.82,-439.19 -37.25,-340.8 -360.08,-515.44 -677,-480.3z"/>
   <path class="fil0" d="M7220.31 1021.96c-5.08,79.39 -0.42,175.25 -0.42,256.45 0,78.96 -3.23,757.96 1.62,772.73 37.63,11.72 141.01,19.9 186.22,22.87 210.54,13.82 541.2,29.93 660.85,-163.96 25.85,-41.89 43.98,-108.4 37.85,-169.39 -6.56,-65.34 -30,-110.2 -64.05,-144.64 -40.27,-40.74 -71.02,-52.21 -132.34,-80.01 103.47,-50.1 147.71,-112.45 146.63,-235.01 -2.3,-262.12 -282.67,-291.53 -481.76,-291.68 -111.22,-0.09 -250.92,9.57 -354.6,32.64z"/>
   <path class="fil0" d="M6127.92 1019.64l-1.14 1032.25c70.81,8.97 205.02,17.21 271.43,-0.75l0.77 -361.62c30.93,-0.03 62.91,0.47 93.8,1.47 10.46,0.34 36.05,-1.27 44.21,0.24 9.8,1.81 12.46,11.49 21.4,25.55l221.01 341.23c53.64,1.23 102.59,1.69 156.33,-0.18 29.09,-1.02 117.96,-8.04 139.94,-18.22 -3.61,-11.24 -123.89,-187.38 -133.07,-200.49l-101.26 -150.73c-9.83,-14.79 -27.73,-37.06 -33.76,-52.57 45.65,-15.04 95,-60.16 126.56,-93.69 75.71,-80.42 99.56,-236.94 56.87,-342.9 -115.01,-285.5 -620.48,-216.28 -863.09,-179.59z"/>
   <path class="fil0" d="M9396.34 1012.96c-2.48,85.44 -0.23,174.33 -0.23,260.15l0 745.29c-0.07,21.99 -1.37,24.7 2.4,33.49 64.15,8.58 206.45,16.18 264.38,-0.75 3.29,-10.02 3.5,-484.78 1.61,-571.19 -0.52,-23.71 -5.24,-49.17 -6.27,-72.99l25.62 40.83c10.84,18.18 18.76,27.07 29.53,42.05 56.2,78.17 124.99,166.06 184.39,245.26l213.94 284.7c8.96,11.66 21.59,30.31 30.9,40.06 14.64,6.84 163.22,-0.75 201.07,-5.06l43.91 -5.61c13.41,-2.62 8.85,0.18 12.88,-6.92l0 -1037.05c-70.66,-9 -200.59,-17.09 -267.8,0.97l0.01 500.32c0,26.6 -1.07,55.45 0.1,81.78 1.09,24.75 6.3,52.4 5.97,76.63 -21.11,-29.13 -41.62,-64.83 -70.94,-105.19 -131.35,-180.85 -269.8,-363.9 -399.19,-545 -8.33,-11.65 -9.25,-17.43 -26.33,-19.23 -77.62,-8.19 -172.57,1.04 -245.95,17.46z"/>
   <path class="fil0" d="M3557.25 1013.7l-0.13 1037.83c85.54,13.13 182.52,12.53 266.11,0.35 3.67,-9.01 2.28,-28.62 2.27,-38.79 -0.13,-172.48 2.5,-357.89 0.02,-527.8 -0.38,-26.18 -5.14,-51.5 -6.37,-77.33l52.44 78.05c7.16,9.64 12.14,16.76 19.2,25.94l150.38 199.66c13.14,17.48 24.47,32.64 37.53,49.99l208.24 277.17c6.65,8.78 11.57,19.77 23.09,21.51 57.93,8.77 195.26,-4.92 251.09,-13.51l0.43 -1041.16c-93.78,-14.32 -172.33,-11.07 -267.49,-0.37 -0.1,189.13 -2.02,389.52 -0.02,578.21 0.28,26.56 6.13,54.49 5.34,79.43 -8.68,-7.81 -26.98,-41.17 -34.44,-53.02 -20.87,-33.16 -87.01,-118.24 -113.07,-154.78 -97.18,-136.2 -203.58,-277.6 -302.87,-413.19 -36.29,-49.55 -18.94,-52.26 -130.49,-48.76 -55.4,1.74 -111.6,5.52 -161.26,20.57z"/>
   <path class="fil1" d="M969 1071.54c-5.06,9.65 -37.13,17.67 -60.51,30.63 -62.11,34.45 -106.38,71.04 -150.53,127.85 -52,66.91 -93.17,166.09 -93.18,276.49 -0.01,185.95 107.05,340.81 269.9,417.98 95.98,45.48 185.21,39.96 301.31,39.96 58.58,0 307.25,3.06 343.31,-0.58 3.21,-31.71 0.58,-247.42 0.58,-298.23 0,-91.16 7.54,-198.77 -16.61,-282.17 -21.78,-75.24 -65.03,-150.63 -109.01,-190.74 -17.48,-15.94 -15.21,-16.86 -37.98,-36.32 -29.88,-25.54 -53.9,-40.7 -89.58,-58.99 -9.5,-4.87 -15.57,-7.9 -25.25,-11.78 -8.79,-3.52 -21.53,-5.97 -25.3,-14.1 0.03,-27.19 3.23,-124.13 -1.88,-141.55 -19.45,-4.76 -20.49,11.76 -49.9,37.11 -15.07,12.98 -34.29,38.18 -46.73,42.37 -20.95,-6.15 -34.24,-52.41 -55.7,-58.95 -8.72,3.69 -26.83,29.1 -32.9,37.7 -24.7,35.03 -18.69,29.24 -92.37,-46.03 -7.55,-7.71 -9.63,-14.25 -22.63,-12.98 -10.05,12.36 -5.01,119.21 -5.04,142.33z"/>
   <path class="fil0" d="M10639.23 1006.19l0.04 1044.93c75.36,17.27 194.92,9.87 270.43,0.77l0.01 -346.46 78.52 -53.56c8.85,5.3 12.53,10.37 17.96,17.22l146.85 166.15c5.76,6.95 10.86,10.73 16.5,17.91 6.61,8.41 10.17,11.28 17.53,19.53l148.13 167.59c6.34,8.28 7.15,11.31 21.63,11.85 90.69,3.38 230.44,5.19 320.81,-8.01 2.52,-0.37 4.17,-0.52 6.58,-1.23 10.84,-3.19 3.92,-1.25 6.98,-3.27l-306.51 -340.52c-5.73,-5.92 -8.89,-11.21 -14.57,-17.45l-138.27 -153.41c-10.87,-12.97 -21.85,-23.63 -30.39,-34.91l175.48 -165.82c22.15,-21.62 36.6,-40.15 55.83,-60.95 57.67,-62.42 127.4,-153.77 176.97,-226.15 7.04,-10.28 17.96,-23.64 22.96,-35 -94.21,-11.85 -220.44,-14.59 -315.44,-4.71l-87.86 118.29c-16.64,20.12 -31.38,38.27 -46.15,57.34 -7.82,10.1 -16.49,17.8 -25.23,27.65 -34.43,38.8 -92.1,98.62 -131.43,131.17 -18.26,15.11 -100.88,85.91 -116.87,91.55l-0.02 -421.45c-72.46,-8.4 -201.76,-18.06 -270.47,0.95z"/>
   <path class="fil0" d="M2302.67 2039.61c51.25,26.26 199.67,18.06 264.01,12.28l42.42 -103.19c12.88,-32.22 26.78,-73.72 42.03,-103.86l427.45 -0.6 83.99 207.68c60.99,12.54 226.28,7.54 271.73,-12.31 -2.13,-14.44 -20.86,-53.68 -27.62,-70.04 -9.65,-23.38 -18.88,-47.62 -29.43,-71.42 -20.68,-46.64 -39.58,-95.71 -59.18,-142.35l-310.14 -748.15c-14.15,-19.45 -201.08,-12.94 -235.07,-9.39 -50.36,5.25 -37.47,4.49 -55.02,46.02 -58.73,139.05 -123.58,288.89 -178.34,426.38 -37.82,94.95 -80.08,188.85 -119.04,284.03l-89.13 213.24c-7.06,16.33 -25.94,57.01 -28.66,71.68z"/>
   <path class="fil0" d="M8140.84 2039.29c42.26,23.52 210.85,21.65 265.35,12.06l83.8 -207.38 426.96 0.29c12.96,17.35 70.96,182.99 85.38,207.63 73.92,9.48 204.54,11.21 272.02,-12.25 -6.25,-20.92 -19.98,-50.1 -28.94,-71.23l-206.94 -498.51c-38.63,-95.11 -79.67,-189.44 -118.13,-285.05l-74.21 -177.74c-14.62,-17.01 -262.54,-19.66 -275.15,2.24l-311.75 746.54c-30.65,72.73 -94.39,217.62 -118.39,283.4z"/>
   <path class="fil1" d="M5295.23 1203.76c-180.06,21.24 -285.27,168.62 -263.56,371.44 19,177.5 161.32,297.43 364,271.53 46.25,-5.91 84.7,-19.14 119.28,-39.66 111.22,-66 157.34,-193.37 141.81,-332.2 -21.7,-193.87 -173.62,-293.27 -361.53,-271.11z"/>
   <path class="fil0" d="M1303.61 1688.19l0.85 -179.09c-4.36,-176.23 -202.75,-238.33 -310.49,-130.57 -71,71.02 -69.18,189.19 0.66,257.93 27.02,26.59 72.04,51.68 127.23,52.11 57.32,0.45 125.48,2.94 181.75,-0.38z"/>
   <path class="fil1" d="M6400.2 1197.08l-1.26 290.87c66.29,0.83 175.44,8.37 231.92,-10.38 138.92,-46.11 145.8,-230.1 -0.12,-273.53 -57.37,-17.08 -167.57,-13.09 -230.54,-6.96z"/>
   <path class="fil1" d="M7490.03 1869.87l0.67 9.74c118.93,5.16 331.99,32.45 342.69,-121.07 7.01,-100.49 -83.08,-140.64 -178.91,-140.64l-164.45 0 0 251.97z"/>
   <path class="fil1" d="M7490.02 1190.51l0.07 235.53c128.16,0.1 298.68,25.66 302.32,-121.07 1.63,-65.67 -45.66,-97.62 -100.77,-111.52 -61.41,-15.48 -137.44,-4.74 -201.62,-2.94z"/>
   <path class="fil1" d="M2734.45 1641.78l260.98 0 -67.79 -169.21c-11.19,-27.7 -22.72,-54.49 -33.2,-83.52 -7.93,-21.95 -21.41,-68.56 -31.72,-86.04 -40.47,135.27 -81.04,210.71 -128.27,338.77z"/>
   <path class="fil1" d="M8573.65 1641.77l260.94 0c-29.49,-80.94 -74.11,-175.16 -100.06,-249.87 -6.07,-17.5 -24.31,-76.85 -32.41,-86.63 -8.48,14.31 -21.98,65.61 -28.44,85.26 -21.42,65.14 -84.17,198.23 -100.03,251.24z"/>
  </g>
 </g>
</svg>
