<?xml version="1.0" encoding="UTF-8"?>
<!DOCTYPE svg PUBLIC "-//W3C//DTD SVG 1.1//EN" "http://www.w3.org/Graphics/SVG/1.1/DTD/svg11.dtd">
<!-- Creator: CorelDRAW 2020 (64-Bit) -->
<svg xmlns="http://www.w3.org/2000/svg" xml:space="preserve" width="120mm" height="30mm" version="1.1" style="shape-rendering:geometricPrecision; text-rendering:geometricPrecision; image-rendering:optimizeQuality; fill-rule:evenodd; clip-rule:evenodd"
viewBox="0 0 12000 3000"
 xmlns:xlink="http://www.w3.org/1999/xlink"
 xmlns:xodm="http://www.corel.com/coreldraw/odm/2003">
 <defs>
  <style type="text/css">
   <![CDATA[
    .fil0 {fill:#0064FE}
    .fil1 {fill:#373435}
    .fil2 {fill:#FEFEFE}
   ]]>
  </style>
 </defs>
 <g id="!;>9_x0020_1">
  <metadata id="CorelCorpID_0Corel-Layer"/>
  <g id="_2365687993808">
   <path class="fil0" d="M2049.96 221.71c-284.87,39.04 -625.9,290.51 -806.45,494.08 -192.84,217.43 -454.3,522.88 -418.8,880 45.05,453.11 870.79,1311.15 1376.62,1213.95 330.15,-63.43 619.09,-315.27 796.43,-498.29 165.98,-171.31 467.76,-559.41 416.49,-868.84 -88.32,-533.15 -867.86,-1288.94 -1364.29,-1220.9z"/>
   <path class="fil1" d="M9931.6 2034.13l630.15 739.11 611.06 2.2c-13.53,-42.21 -321.58,-403.28 -379.53,-469.62 -63.8,-73.04 -126.96,-154.51 -190.41,-229.43 -30.93,-36.53 -181.26,-208.82 -189.69,-238.66l153.21 -191.05c57.05,-69.88 453.71,-540.99 460.1,-579.94l-595.29 1.16c-35.8,26.65 -93,108.35 -122.5,143.93l-371.63 448.78c-9.14,17.65 10.34,22.58 -12.07,12.63l-2.61 -1452.86 -508.73 0.61 0.89 2549.85 507.89 2.49 -0.36 -656.05c-0.36,-29.99 -4.4,-62.3 9.52,-83.15z"/>
   <path class="fil1" d="M9224.63 2113.18l-528.18 -2.23c-79.75,154.96 -203.19,271.09 -438.13,230.17 -379.9,-66.19 -396.54,-745.89 -10.82,-832.54 247.37,-55.56 352.19,67.89 453.14,231.03l522.9 -0.55c5.85,-140.22 -166.99,-407.49 -307.87,-521.16 -515.25,-415.71 -1469.83,-124.52 -1468.09,703.74 0.51,246.31 90.84,463.5 230.51,608.35 419.76,435.33 1137.35,359.67 1426.18,-116.72 45.14,-74.44 113.99,-214.59 120.36,-300.09z"/>
   <path class="fil1" d="M5711.59 2110.35l-522.12 -0.35c-61.38,96.9 -98.09,162.02 -197.4,209.52 -97.49,46.63 -255.11,35.57 -343.98,-14.33 -174.58,-98.03 -248.27,-373.16 -151.67,-592.47 112.69,-255.81 488.98,-309.47 653.5,-39.81 50.85,83.36 30.11,66.97 143.25,66.46 138.32,-0.61 276.82,0.99 415.12,-0.2 15.33,-71.04 -75.74,-241.68 -109.98,-299.22 -289.96,-487.36 -1025.27,-549.23 -1422.55,-132.13 -144.42,151.63 -236.78,364.57 -237.45,613.84 -0.89,335.88 181.92,653.62 470.01,792.16 436.6,209.96 919.23,101.77 1185.07,-295.7 36.85,-55.09 121.77,-235.47 118.2,-307.77z"/>
   <path class="fil1" d="M5898.91 2774.36l519.8 0.59c-0.99,-282.64 18.75,-2490.9 -6.65,-2551.88 -39.9,-19.42 -435.39,-11.38 -509.68,-5.62l-3.47 2556.91z"/>
   <path class="fil1" d="M6723.01 2773.63l511.71 -0.45c-7.42,-280.2 -0.97,-569.7 -0.97,-851.52 0,-125.28 13.48,-789.19 -8.59,-854.8l-493.64 1.04c-14.78,70.53 -5.32,1109.47 -5.32,1273.37 0,128.01 10.56,311.15 -3.19,432.36z"/>
   <path class="fil2" d="M2073.51 1003.09c-82.67,20.83 -106.53,32.93 -173.67,79.71 -139.47,97.17 -325.58,287.94 -291.37,493.93 28.08,169.18 351.42,511.28 575.76,450.4 164.87,-44.73 513.15,-346.43 446.25,-576.46 -51.56,-177.31 -346.49,-500.62 -556.97,-447.58z"/>
   <path class="fil1" d="M6933.77 201.27c-449.29,93.93 -296.56,696.07 101.73,630.39 171.04,-28.2 291.46,-175.71 263.7,-374.4 -21.85,-156.36 -191.77,-292.3 -365.43,-255.99z"/>
   <path class="fil1" d="M9931.6 2034.13c-13.92,20.85 -9.88,53.16 -9.52,83.15l0.36 656.05 -507.89 -2.49 -0.89 -2549.85 508.73 -0.61 2.61 1452.86c22.41,9.95 2.93,5.02 12.07,-12.63 -20.49,-107.44 26.7,-1351.69 -11.78,-1452.76 -61.98,-7.47 -480.35,-7.12 -521.98,3.86l-3.41 2570.56c51.5,14.89 462.18,12.9 526.42,4.43 21.38,-63.24 17.53,-664.02 5.28,-752.57z"/>
   <path class="fil1" d="M6723.01 2773.63c4.36,27.8 65.96,16.19 118.14,15.99 85.99,-0.34 358.8,8.88 403.79,-7.76 14.35,-77.88 1.02,-1369.35 3.79,-1624.93 1.11,-103.32 5.67,-84.46 -23.57,-90.07 22.07,65.61 8.59,729.52 8.59,854.8 0,281.82 -6.45,571.32 0.97,851.52l-511.71 0.45z"/>
  </g>
 </g>
</svg>
