<?xml version="1.0" encoding="UTF-8"?>
<!DOCTYPE svg PUBLIC "-//W3C//DTD SVG 1.1//EN" "http://www.w3.org/Graphics/SVG/1.1/DTD/svg11.dtd">
<!-- Creator: CorelDRAW 2020 (64-Bit) -->
<svg xmlns="http://www.w3.org/2000/svg" xml:space="preserve" width="120mm" height="30mm" version="1.1" style="shape-rendering:geometricPrecision; text-rendering:geometricPrecision; image-rendering:optimizeQuality; fill-rule:evenodd; clip-rule:evenodd"
viewBox="0 0 12000 3000"
 xmlns:xlink="http://www.w3.org/1999/xlink"
 xmlns:xodm="http://www.corel.com/coreldraw/odm/2003">
 <defs>
  <style type="text/css">
   <![CDATA[
    .fil1 {fill:#110F0A}
    .fil0 {fill:#33CBCB}
    .fil3 {fill:#FEFEFE}
    .fil2 {fill:white}
   ]]>
  </style>
 </defs>
 <g id="!;>9_x0020_1">
  <metadata id="CorelCorpID_0Corel-Layer"/>
  <g id="_2328807792224">
   <path class="fil0" d="M6630.46 425.68c-109.54,6.69 -199.59,51.4 -262.14,133.93 -81,106.89 -71.07,194.17 -71.07,325.83l0 1188.64c0,66.8 -2.27,118.81 18.77,178.65 9.15,26.01 18.95,45.76 32.09,67.64 6.31,10.5 13.43,20.4 20.3,29.62 32.46,43.51 84.07,83.42 140.08,107.59 57.55,24.84 104.91,26.3 172.38,26.3l2777.92 0c128.11,0 217.62,-7.96 334.94,-61.51 47.3,-21.58 88.67,-46.51 124.74,-73.16 20.18,-14.91 37.17,-29.88 54.83,-44.92 24.05,-20.49 72.94,-77.47 94.07,-103.78l112.69 -134.93c7.58,-8.9 15.17,-18.9 22.58,-27.35 43.25,-49.25 91.35,-110.53 135.35,-162.17l45.24 -54.59c7.69,-9.58 14.22,-16.64 22.02,-26.12 27.67,-33.58 91.98,-108.1 112.18,-135.58 99.97,-136.01 86.73,-314.56 -21.42,-436.72 -27.81,-31.44 -61.34,-74.52 -89.86,-108 -16.09,-18.88 -29.92,-35.45 -45.46,-54.21l-338.64 -406.16c-16.39,-20.54 -55.27,-54.85 -75.47,-72.46 -90.29,-78.78 -223.95,-134.53 -346.41,-150.88 -61.87,-8.25 -127.15,-5.99 -191.25,-5.99l-2679.85 0c-31.54,0 -68.09,-1.54 -98.61,0.33z"/>
   <path class="fil1" d="M1409.61 283.64l0 1082.25c0,19.86 69.02,130.46 80.53,146.84 18.83,26.84 50.46,70.85 73.69,95.9 8.82,9.5 18.49,23.21 27.32,30.89l42.76 42.07c6.21,6.61 7.65,8.47 14.34,13.91 33.89,27.61 51.75,47.18 94.62,76.6 25.12,17.22 79.35,54.16 105.22,65.36 2.08,-15.71 0.68,-182.17 0.67,-212.24 0,-43.23 4.57,-68.38 27.01,-95.44 16.63,-20.05 39.91,-39.17 76.56,-46.2 21.38,-4.1 206.62,-1.73 244.96,-1.96 146.66,-0.9 296.16,-24.09 421.28,-73.43 117.69,-46.42 209.11,-113.86 280.46,-213.34 67.53,-94.18 110.1,-240.32 110.1,-384.22 0,-107.73 -18.05,-226.59 -62.87,-313.42 -21.41,-41.49 -41.12,-76.62 -66.52,-108.03 -154.99,-191.74 -431.49,-216.27 -662.51,-216.27l-691.56 -0.43c-59.45,-3.24 -116.06,53.65 -116.06,111.16z"/>
   <path class="fil1" d="M3174.79 1166.51l236.08 0c55.46,0 66.86,-9.1 85.03,-51.41 26.16,-60.9 18.67,-53.39 57.95,-96.6 6.23,-6.85 22.68,-16.58 30.74,-20.82 91.57,-48.09 138.66,-42.42 230.23,-43.49 44.67,-0.52 90.53,14.86 128.97,33.44 38.33,18.54 59.39,48.74 78.54,85.94 28,54.41 33,143.74 -7.33,193.28 -21.43,26.31 -66.64,32.85 -100.43,32.85 -129.53,0 -197.79,-3.79 -330.82,12.73 -100.71,12.51 -192.15,32.67 -277.99,69.61 -157.72,67.87 -272.85,248.12 -272.85,422.72l0 41.57c0,91.53 30.05,173.16 80.96,240.45 3.79,5.01 9.75,12.84 13.42,16.53 36,36.16 25.59,27.71 61.69,56.36 91.94,72.97 212.89,108.6 361.53,108.6l33.25 0c79.31,0 208.46,-18.67 273.93,-48.21 36.66,-16.54 74.38,-33.85 107.39,-53.89 17.68,-10.73 33.96,-19.99 50.53,-30.97 8.17,-5.41 15.96,-10.53 23.73,-16.13 8.06,-5.8 16.12,-12.02 24.75,-17.28 0,44.56 -8.69,132.89 63.29,132.89l290.71 0c49.82,0 67.72,-36.44 67.72,-85.79l0 -904.36c0,-88.41 -14.25,-185.65 -45.34,-259.87 -16.86,-40.26 -35.65,-66.91 -58.44,-94.48 -6.41,-7.76 -11.48,-12.6 -19.17,-19.14 -30.9,-26.28 -20.29,-20.06 -65.19,-49.58 -67.78,-44.56 -125.11,-68.17 -216.83,-89.01 -154.45,-35.1 -416.2,-34.79 -570.99,0.74 -118.78,27.27 -196.22,60.34 -277.93,132.88 -7.97,7.09 -12.2,11.11 -19.17,19.11 -15.23,17.47 -16.65,16.33 -33.83,40.96 -9.51,13.65 -19.88,29.93 -28.18,46.74 -18.03,36.48 -29.67,66.54 -39.6,110.01 -10.27,45.03 22.59,83.62 63.65,83.62z"/>
   <path class="fil2" d="M7728.2 1013.23c-6.38,-7.96 -32.65,-103.23 -128.99,-166.75 -127.35,-83.98 -325.63,-79.23 -463.02,-21.07 -39.81,16.85 -96.98,47.97 -129.47,75.03 -30.39,25.32 -61.26,54.8 -90.67,80.57 -13.92,12.18 -89.38,89.41 -100.81,103.66l-47.48 55.57c-20.51,25.69 -39.23,50.49 -58.95,79.02 -35.01,50.64 -69.82,112.65 -93.89,178.78 -31.52,86.59 -30.07,145.92 -30.07,243.81l0.02 408.95c-0.12,48.39 7.86,78.56 59.43,78.56l252.69 0c81.27,0 69.82,-53.67 69.82,-106.82 0,-249 1.5,-501.24 -0.01,-749.76 -0.13,-20.15 2.46,-20.48 11.94,-32.95 65,-85.48 128.98,-176.09 272.35,-176.09 45.51,0 88.64,26.5 107.89,66.26 19.92,41.16 32.15,95.97 32.15,147.78l-1.24 681.59c0,36.64 -1.97,78.88 -0.12,114.74 1.84,35.72 20.45,56.49 57.48,56.49l254.35 0c35.55,0 60.43,-12.37 66.39,-43.4 3.92,-20.32 1.37,-296.36 1.37,-330.64 0,-147.96 0,-295.92 0,-443.87 0,-44.34 -6.77,-51.04 9.9,-71.97l36.47 -46.68c37.28,-48.45 96.44,-100.42 156.31,-121.3 58.77,-20.49 126.44,-17.37 171.59,27.32 19.68,19.49 29.06,44.95 37.57,73.82 10.11,34.32 14.97,64.52 14.97,102.23l-1.25 683.26c0,35.87 -2.31,80.02 0.08,114.79 2.56,37.26 23.24,53.94 61.85,53.94l244.38 0c23.52,0 47.5,-6.15 59.98,-18.97 16.86,-17.33 14.39,-34.86 14.42,-63.31l0.01 -783c0.1,-125.92 -23.76,-273.37 -106.74,-363.31 -26.57,-28.79 -49.72,-49.9 -86.73,-69.6 -72.29,-38.49 -165.15,-57.84 -259.92,-51.31 -128.86,8.86 -231,77.14 -316.76,154.24l-67.91 70.02c-3.75,4.67 -4.85,6.05 -9.38,10.37z"/>
   <path class="fil1" d="M5028.98 2410.68c27.54,-4.79 73.61,-26.46 98.31,-38.09 88.81,-41.81 169.74,-100.78 243.72,-163.75l69.58 -65.04c5.84,-5.84 11.02,-10.59 16.56,-16.68 5.26,-5.78 11.16,-13.23 16.78,-18.16 18.68,-16.45 76.91,-88.34 93.62,-109.2 44.16,-55.15 99.78,-142.24 132.37,-206.86 16.65,-33.05 74.36,-201.77 91.5,-247.58 24.76,-66.12 47.42,-132.64 71.72,-199.23 24.4,-66.86 48.36,-132.26 71.76,-199.23 34.23,-97.96 74.13,-201.52 106.86,-298.77 40.29,-119.68 -12.59,-104.54 -138.91,-104.54 -45.45,0 -90.89,0 -136.32,0 -50.46,0 -76.29,-3.52 -110.17,25.04 -26.73,22.54 -31.92,49.79 -46.58,89.81l-107.9 297.73c-33.99,95.17 -73.11,205.68 -108.39,298.9 -12.5,33.05 -25.04,66.69 -36.44,99.86 -5.69,16.54 -12.08,33.28 -18.1,50.09 -4.44,12.45 -13.08,40.34 -18.54,49.58 -18.61,-46.17 -44.85,-127.15 -63.08,-178.46 -21.39,-60.18 -41.61,-120.2 -63.64,-180.72 -53.26,-146.25 -104.89,-301.25 -157.96,-450.49 -12.58,-35.36 -14.92,-51.62 -45.56,-75.87 -28.77,-22.77 -51.59,-26.24 -94.75,-26.23 -39.79,0 -217.23,-2.58 -242.02,1.87 -33.09,5.95 -57.32,28.11 -56.13,66.02 0.63,20.09 22.52,72.05 30.13,91.7 22.52,58.02 43.61,119.96 65.87,178.49 10.96,28.86 22.97,60.05 32.51,88.88 19.71,59.59 45.76,118.94 65.67,178.67 28.49,85.45 68.1,179.69 97.65,266.47 10.13,29.71 21.87,61.06 33.07,89.87 22.81,58.65 42.95,118.29 65.34,177.38 22.34,58.9 44.77,118.98 66.09,178.32 5.08,14.18 10.4,29.76 16.17,43.73 13.38,32.37 46.81,108.76 39.89,141.07 -6.85,31.98 -17.87,63.5 -31.61,89.69 -20.47,39.02 -42.78,64.01 -49.07,75.73z"/>
   <path class="fil2" d="M9102.62 1540.44l786.74 0c41.1,0 67.56,1.01 88.15,-24.89 29.7,-37.35 13.76,-145.54 4.87,-196.12 -25.82,-146.94 -83.18,-276.2 -188.7,-374.92 -6.1,-5.71 -8.16,-8.23 -14.73,-13.53 -19.68,-15.87 -23.88,-20.19 -47.66,-37.1 -192.03,-136.57 -503.93,-135.16 -699.09,-1.18l-92.3 75.65c-139.8,139.49 -198.93,341.08 -186.35,543.96 8.32,134.11 47.98,248.75 108.94,340.18 93.73,140.59 245.3,228.83 421.91,252.91 165.27,22.53 322.83,3.29 459.84,-90.02 24,-16.35 43.41,-32.56 63.62,-49.42l27.69 -27.15c29.95,-31.06 50.18,-56.59 74.67,-94.91 11.6,-18.14 54.97,-93.03 51.6,-116.53 -2.18,-15.16 -13.32,-27.38 -24.3,-32.29 -18.19,-8.13 -186.64,-3.71 -221.05,-3.78 -80.05,-0.16 -81.69,43.49 -113.91,84.32 -4.33,5.48 -8.39,9.74 -13.04,15.23 -33.65,39.75 -90.22,69.52 -145.35,79.02 -62.91,10.84 -143.74,-1.79 -192.51,-27.6 -108.41,-57.39 -148.96,-181.76 -149.04,-301.83z"/>
   <path class="fil3" d="M1903.49 525.92c-63.44,11.57 -55.62,71.2 -55.62,110.16l0 332.49c0,75.66 -11.79,165.85 81.75,165.67 76.35,-0.15 176.52,2.32 247.72,-1.31 98.44,-5.01 198.04,-13.52 270.66,-61.59 32.62,-21.59 60.68,-51.01 77.96,-86.62 42.95,-88.56 50.49,-183.11 24.47,-279.6 -5.05,-18.75 -15.16,-43.71 -24.4,-58.68 -31.58,-51.09 -85.91,-84.54 -146.81,-100.81 -97.36,-26.02 -284.93,-20.35 -394.72,-20.35 -19.8,0 -64.46,-2.38 -81.01,0.64z"/>
   <path class="fil1" d="M4885.44 2494.56l-73.08 -3.19c-23.79,-1.43 -39.58,-5.59 -64.9,-5.59 -32.82,0 -60.86,14.71 -60.86,47.13l0 207.81c0,25.81 6.87,49.14 20.71,63.41 14.01,14.42 35.86,18.13 60.58,22.66 73.59,13.48 113.8,15.02 185.71,15.02 128.09,0 242.46,-55.18 323.18,-137 6.54,-6.63 15.96,-14.17 21.75,-21.42l37.95 -45.24c71.61,-90.83 101.42,-155.06 152.33,-268.32 17.62,-39.21 32.17,-79.4 48.59,-119.34 7.99,-19.44 14.98,-40.76 22.34,-60.78 6.83,-18.56 18.36,-45.07 22.49,-63.21 -7.58,3.63 -11.74,10.35 -17.53,16.71 -5.05,5.55 -11.59,10.77 -17.47,15.82 -6.37,5.47 -10.58,10.85 -17.11,16.1l-71.43 61.55c-62.53,47.83 -100.48,78.84 -174.64,124.57 -99.33,61.25 -253.16,133.31 -398.61,133.31z"/>
   <path class="fil3" d="M3920.35 1550.11c-18.82,1.76 -43.84,-0.36 -63.96,0.44 -91.27,3.68 -182.19,21.66 -266.8,53.94 -14.51,5.54 -29.87,15.59 -39.72,23.43l-16.41 15.15c-10.99,11.04 -4.29,2.27 -16.04,17.24 -18.35,23.34 -33.45,51.89 -39.41,88.34 -5.81,35.42 -3.92,83.54 7.21,116.47 47.95,141.88 247.03,144.73 366.84,113.06 35.9,-9.49 62.01,-20.32 91.88,-36 25.54,-13.39 36.1,-23.62 55.92,-38.85 13.59,-10.44 35.18,-37.21 44.98,-51.46 6.98,-10.12 6.57,-9.76 6.92,-23.76l2.37 -159.69c-0.8,-70.3 -59.99,-125.24 -133.78,-118.31z"/>
   <path class="fil1" d="M1849.08 1903.49c-6.23,-4.61 -51.74,-20.74 -62.64,-25.41 -20.7,-8.87 -42.22,-18.32 -61.71,-28.1 -102.85,-51.57 -158.61,-91.03 -244.24,-159.63l-70.75 -63.13c-1.72,56.01 -0.13,114.61 -0.13,170.9l0.01 345.79c-0.26,30.92 1.37,49.58 18.69,67.44 16.32,16.82 31.58,24.19 62.44,24.11l259.34 -0.01c27.56,0 54.84,1.53 73.19,-13.35 36.54,-29.65 25.8,-91.86 25.8,-146.35 0,-57.42 0,-114.84 0,-172.26z"/>
   <path class="fil0" d="M9102 1321l546.31 0c-9.35,-83.85 -27.67,-136.73 -76.74,-199.23 -5.12,-6.51 -9.78,-9.95 -16.27,-16.95 -4.23,-4.58 -13.8,-11.9 -19.17,-15.78 -48,-34.81 -97.1,-48.54 -160.49,-48.18 -160.98,0.93 -256.27,126.49 -273.64,280.14z"/>
   <path class="fil2" d="M6585.7 873.81l0.38 333.75 37.1 -47.29c6.37,-7.85 12.99,-14.85 18.9,-22.69l40.36 -44.44c37.18,-41.57 121.93,-107.69 164.67,-136.21 42.77,-28.54 60.76,-36.77 100.53,-58.97 7.71,-4.3 6.69,-3.1 6.69,-14.18 0,-46.1 -11.62,-73.99 -59.01,-73.99l-257.67 0c-40.16,0 -51.95,25.36 -51.95,64.02z"/>
  </g>
 </g>
</svg>
