<?xml version="1.0" encoding="UTF-8"?>
<!DOCTYPE svg PUBLIC "-//W3C//DTD SVG 1.1//EN" "http://www.w3.org/Graphics/SVG/1.1/DTD/svg11.dtd">
<!-- Creator: CorelDRAW 2020 (64-Bit) -->
<svg xmlns="http://www.w3.org/2000/svg" xml:space="preserve" width="120mm" height="30mm" version="1.1" style="shape-rendering:geometricPrecision; text-rendering:geometricPrecision; image-rendering:optimizeQuality; fill-rule:evenodd; clip-rule:evenodd"
viewBox="0 0 12000 3000"
 xmlns:xlink="http://www.w3.org/1999/xlink"
 xmlns:xodm="http://www.corel.com/coreldraw/odm/2003">
 <defs>
  <style type="text/css">
   <![CDATA[
    .fil0 {fill:#6758A1}
    .fil1 {fill:#FEFEFE}
   ]]>
  </style>
 </defs>
 <g id="!;>9_x0020_1">
  <metadata id="CorelCorpID_0Corel-Layer"/>
  <g id="_2328881750032">
   <path class="fil0" d="M1458.01 1405.39l0 213.04 4.45 14.92c20.56,141.58 21.18,197.58 79.89,351.03 64.79,169.37 166.97,328.38 294.53,455.93l118.71 108.85c178.25,146.46 423.93,250.26 655.79,278.67l28.01 5.87 295.35 0c6.24,-3.96 -3.82,-0.69 10.81,-3.71l125.21 -20.04c135.84,-27.36 186.88,-57.65 299.06,-102.81 21.15,-8.51 30.66,-16.07 50.7,-26.76 56.73,-30.27 99.35,-56.21 149.24,-92.85 15.71,-11.55 28.09,-21.26 44.22,-33.25 41,-30.45 90.78,-76.97 128.16,-113.93l109.08 -128.16c72.46,-97.09 126.58,-189.65 173.66,-305.67 54.15,-133.48 111.77,-391.46 95.37,-537.48 -5.19,-46.29 -7.18,-100.91 -13.52,-146.25 -6.72,-48.01 -15.11,-88.61 -25.72,-134.05 -9.07,-38.83 -23.71,-86.4 -36.9,-122.88 -14.87,-41.15 -29.79,-73.72 -46.23,-113.55 -23.74,-57.46 -80.31,-152.02 -116.95,-202.6 -13.03,-17.98 -21.53,-30.32 -34.55,-47.76 -10.99,-14.73 -22.27,-30.01 -34.16,-43.31 -210.07,-235.08 -387.3,-345.38 -684.39,-434.05 -123.7,-36.92 -227.03,-33.06 -263.68,-41.35 -0.88,-0.19 -2.9,0.09 -3.51,-1.33 -0.6,-1.38 -2.33,-0.82 -3.37,-1.47l-135.57 0c-5.87,3.72 -0.14,1.74 -10.65,3.87l-28.1 0.95c-124.09,0.28 -355.71,68.41 -459.96,121.04 -34.72,17.53 -69.14,34.16 -101.91,53.03 -138.85,79.94 -123.98,85.07 -224.51,162.83 -17.88,13.83 -24.95,21.76 -40.32,37.14 -206.19,206.33 -320.55,425.74 -378.52,710.88l-18.25 131.84c-0.16,-0.63 -0.81,2.34 -1.47,3.37z"/>
   <path class="fil0" d="M10536.25 2054.18l0 -716.57 -19.28 -77.55c-15.92,-61.3 -60.65,-135.73 -102.92,-177.9 -148.05,-147.7 -411.12,-166.37 -581.31,-99.46 -162.74,63.98 -181.6,141.17 -211.58,161.24 -11.52,-43.13 -106.81,-112.46 -146.84,-133.98 -63.09,-33.92 -127.01,-53.13 -215.92,-60.06 -86.77,-6.76 -166.92,3.38 -239.46,27.57 -107.85,35.96 -173.97,88.98 -235.46,180.94 -69.14,103.4 -67.72,216.77 -67.72,343.82 0,183.98 0,367.97 0,551.95l314.71 0c0,-174.3 0,-348.6 0,-522.9 0,-104.18 -1.24,-155.62 43.43,-218.02 79.24,-110.68 273.48,-102.31 353.73,9.68 39.16,54.65 43.44,119.54 43.44,213.18 0,172.69 0,345.38 0,518.06l314.71 0c0,-172.68 0,-345.37 0,-518.06 0,-69.09 -5.61,-119.13 19.88,-178.62 66.59,-155.41 294.64,-158.9 375.28,-37.4 46.47,70.02 40.59,106.72 40.59,216.02 0,172.69 0,345.38 0,518.06l314.72 0z"/>
   <path class="fil1" d="M1932.5 1071.31l0 440.6c0,252.58 69.99,474.83 238.46,642.74 17.5,17.45 35.03,37.6 53.47,53.04 322.14,269.72 732.81,287.98 1078.3,40.19 10.13,-7.27 27.8,-21.12 37.54,-30.25l38.76 -33.87c41.57,-38.45 95.91,-109.83 126.08,-154.74 72.96,-108.63 132.55,-275.83 136.68,-415.27 5.4,-182.08 -0.16,-373.79 -0.16,-556.96 -22.89,-1.9 -56.16,-15.58 -79.46,-22.21 -104.09,-29.63 -155.35,-36.97 -254.62,-60.1 0,209.7 11.87,656.38 -23.75,833.23 -32.96,163.62 -123.64,311.22 -272.21,371.74 -170.53,69.48 -428.79,58.27 -569.5,-82.9 -186.54,-187.15 -170.67,-428.69 -170.67,-691.16 0,-143.63 0,-287.27 0,-430.91 -128.05,29.83 -174.76,34.66 -303.31,74.34 -16.19,5 -35.61,6.2 -35.61,22.49z"/>
   <path class="fil0" d="M6106.07 1235.93l590.69 0c-13.28,11.55 -23.94,22.18 -37.43,35.2l-539.97 481.63c-8.68,8.81 -10.08,10.43 -20.38,18.35 -8.91,6.85 -17.12,7.87 -17.12,21.62l0 261.45 1074.86 0 0 -266.29 -653.63 0 497.43 -446.71c13.1,-13.29 105.86,-97.3 117.47,-100.41l0 -271.13 -1011.92 0 0 266.29z"/>
   <path class="fil0" d="M7379.44 1594.22c0,68.91 29.63,157.6 53.13,203.49 123.75,241.66 455.14,339.67 729.25,230.28 126.24,-50.38 232.33,-146.31 282.86,-273.93 27.19,-68.66 38.68,-146.12 38.68,-242.15l0 -542.27 -319.56 0 0 595.53c0,121.79 -91.99,217.88 -213.03,217.88l-48.42 0c-125.2,0 -208.2,-100.36 -208.2,-227.56l0 -585.85 -314.71 0 0 624.58z"/>
   <path class="fil0" d="M4779.44 1570.01c0,80.28 21.97,159.37 48.34,213.11 55.47,113.07 155.38,204.47 275.37,247.53 186.56,66.95 373.12,57.6 542.74,-44.47 54.46,-32.77 102.8,-73.18 140.67,-125.62 19.75,-27.37 34.03,-52.24 50.05,-85.52 28.2,-58.56 46.74,-139.6 46.74,-224.39l0 -581.01 -314.71 0c0,120.7 10.49,568.48 -12.44,655.72 -24.75,94.16 -105.79,157.69 -195.76,157.69 -76.99,0 -153.27,0.79 -211.69,-69.13 -32.17,-38.52 -54.6,-99.23 -54.6,-168.12l0 -576.16 -314.71 0 0 600.37z"/>
   <path class="fil1" d="M2639.39 645.24l0 706.89 300.19 0 0 -706.89 -179.14 -4.84c-47.1,0 -74.68,4.84 -121.05,4.84z"/>
  </g>
 </g>
</svg>
