<?xml version="1.0" encoding="UTF-8"?>
<!DOCTYPE svg PUBLIC "-//W3C//DTD SVG 1.1//EN" "http://www.w3.org/Graphics/SVG/1.1/DTD/svg11.dtd">
<!-- Creator: CorelDRAW 2020 (64-Bit) -->
<svg xmlns="http://www.w3.org/2000/svg" xml:space="preserve" width="120mm" height="30mm" version="1.1" style="shape-rendering:geometricPrecision; text-rendering:geometricPrecision; image-rendering:optimizeQuality; fill-rule:evenodd; clip-rule:evenodd"
viewBox="0 0 12000 3000"
 xmlns:xlink="http://www.w3.org/1999/xlink"
 xmlns:xodm="http://www.corel.com/coreldraw/odm/2003">
 <defs>
  <style type="text/css">
   <![CDATA[
    .fil2 {fill:#FEFEFE}
    .fil4 {fill:#0D3F22}
    .fil0 {fill:#219653}
    .fil1 {fill:#2A2928}
    .fil3 {fill:#EED35B}
   ]]>
  </style>
 </defs>
 <g id="!;>9_x0020_1">
  <metadata id="CorelCorpID_0Corel-Layer"/>
  <g id="_2328873599600">
   <polygon class="fil0" points="771.04,935.62 350.39,937.12 350.39,2584.28 2194.77,2584.28 2194.75,939.95 1777.02,936.98 1769.18,877.94 1773.32,935.74 "/>
   <path class="fil1" d="M5000.74 1055.04l-1.3 353.84c84.94,16.06 265.52,-104.7 495.5,-102.12 170.18,1.92 395.83,26.04 376.37,225.04 -461.78,23.52 -1047.91,65.86 -997.55,600.47 20.34,216.02 185.29,373.16 390.49,407.65 111.32,18.71 254.28,4.78 352.85,-32.73 148.76,-56.61 208.6,-132.86 253.77,-152.43l1.04 152.23 467.52 1.62c0,-243.17 0,-486.27 0,-729.36 0,-334.37 42.14,-643.1 -352.46,-753.17 -269.86,-75.28 -741.83,-51.31 -986.23,28.96z"/>
   <path class="fil1" d="M11643.87 2508.54l0 -1087.78c-35.06,-74.45 -11.38,-180.81 -160.72,-301.21 -82.75,-66.71 -205.34,-104.74 -337.45,-123.54 -257.46,-36.63 -597.39,-8.75 -840.27,58.16l-1.51 355.76c59.99,7.43 172.66,-43.14 234.47,-61.24 207.08,-60.66 662.53,-93.88 637.54,182.98 -462.18,26.3 -1047.8,64.68 -997.68,600.59 39.01,417.03 546.89,524.73 875.61,306.92l121.95 -85.35 0.41 154.53 467.65 0.18z"/>
   <path class="fil1" d="M8845.23 1182.59l-0.55 -160.58 -470.4 -0.19 -0.82 1482.75 471.58 4.09 0 -1043.76c11.29,-47.15 206.63,-108.36 330.3,-95.26 158.27,16.77 181.27,98.24 194.89,255.84 14.54,168.17 6.5,678.39 6.5,880.39l474.18 2.79c0,-227.88 0,-455.65 0,-683.41 0,-203.81 20.45,-449.52 -69.88,-613.54 -138.69,-251.8 -483.38,-286.56 -724.14,-163.98 -110.27,56.14 -171.06,114.6 -211.66,134.86z"/>
   <path class="fil1" d="M3576.33 1761.99c-11.31,27.59 -117.38,157.66 -141.99,187.77 -50.48,61.77 -95.86,124.36 -144.66,185 -50.29,62.48 -95.48,121.67 -144.5,185.17l-143.31 188.24 539.36 0.01 239.29 -335.01c26.72,-35.48 48.36,-71.03 78.25,-106.21 43.9,40.14 296.12,435.16 325.12,441.58l536.81 -0.65c-10.58,-24.96 -47.25,-66.16 -68.33,-93l-505.02 -657.34c12.4,-29.17 386.79,-500.22 424.43,-548.82l141.69 -187.15 -536.94 0.01c-42.38,72.95 -272.14,371.14 -307.67,434.03l-277.69 -387.08c-16.42,-23.36 -23.18,-46.96 -51.31,-46.96l-528.4 0.15c12.39,27.93 109.48,145.92 136.86,182.91l428.01 557.35z"/>
   <path class="fil1" d="M6691.82 1369.43l737.56 0.44c-15.81,37 -10.99,13.04 -55.41,64.88 -109.63,127.94 -234.77,244.62 -342.59,370.63l-344.35 368.68c-36.97,31.68 -27.52,35.31 -26.99,95.81 0.7,79.46 0.1,159.18 0.1,238.67l1380.24 0 1.74 -355.04 -773.99 -0.06 221.05 -242.95c20.61,-19.56 35.07,-40.15 53.36,-61.86l455.79 -494.82c37.91,-33.24 30.16,-33.6 29.54,-95.85 -0.74,-73.78 5.08,-165.16 -2.2,-236.38l-1332.69 0.02 -1.16 347.83z"/>
   <polygon class="fil2" points="770.71,2154.93 1822.46,2154.93 1771.56,2154.93 1771.56,1368.3 772.06,1368.3 "/>
   <path class="fil3" d="M771.04 935.62l1002.28 0.12 -4.14 -57.8c-7.5,-89.5 -43.19,-172.78 -92.69,-240.71 -138.47,-189.97 -293.53,-182.32 -350.44,-207.37l-110.18 0c-48.23,22.49 -112.14,25.34 -177.46,59.2 -49.37,25.6 -105.53,71 -133.62,104.28 -78.03,92.43 -127.12,178.84 -133.75,342.28z"/>
   <path class="fil2" d="M11176.18 2108.93l-0.16 -297.71c-107.6,7.91 -243.46,21.82 -343.71,46.24 -112.78,27.48 -183.19,78.73 -176.34,212.69 9.65,188.65 278.6,175.46 404.35,121.92 23.43,-9.98 46.64,-23.48 64.1,-35.06 24.44,-16.21 41.4,-22.2 51.76,-48.08z"/>
   <path class="fil2" d="M5870.5 2124.14l1.19 -312.8c-106.85,8.11 -240.06,20.95 -338.69,44.97 -111.57,27.17 -186.01,74.24 -181.8,206.19 6.39,199.94 282.67,180.22 392.44,133.98 20.24,-8.53 47.7,-22.39 66.36,-33.02 22.83,-13.02 37.87,-27.36 60.5,-39.32z"/>
   <path class="fil4" d="M770.71 2154.93c15.4,8.93 11.51,8.28 54.76,8 218.48,-1.36 835.07,9.6 948.96,-2.36 10.46,-50.42 9.27,-765.44 -1.64,-799.34 -166.53,-13.98 -692.94,1.22 -939.57,-1.68 -26.41,-0.31 -43.57,-3.45 -61.16,8.75l999.5 0 0 786.63 50.9 0 -1051.75 0z"/>
  </g>
 </g>
</svg>
